<?xml version="1.0" standalone="no"?><!DOCTYPE svg PUBLIC "-//W3C//DTD SVG 1.1//EN" "http://www.w3.org/Graphics/SVG/1.1/DTD/svg11.dtd"><svg t="1715070823471" class="icon" viewBox="0 0 1024 1024" version="1.1" xmlns="http://www.w3.org/2000/svg" p-id="4266" xmlns:xlink="http://www.w3.org/1999/xlink" width="24" height="24"><path d="M665.941 222.251C719.896 161.501 710.423 65 710.423 65s-96.923 2.066-150.892 62.831c-53.955 60.808-44.497 157.28-44.497 157.28s96.952-2.038 150.907-62.86z m-84.118-74.646c27.486-30.95 70.164-43.813 98.887-49.124-1.862 29.131-9.56 73.031-37.046 103.98-27.326 30.804-70.121 43.726-98.902 49.095 1.877-29.16 9.589-73.001 37.061-103.951z" p-id="4267"></path><path d="M852.439 389.906s-52.907-97.156-152.552-103.85c-99.644-6.737-140.546 48.367-178.96 44.104s-115.286-87.756-237.149-16.122c-87.902 51.597-165.036 191.591-123.304 345.248 41.703 153.628 142.235 294.028 207.713 298.307 65.42 4.263 112.915-38.414 152.74-37.003 39.84 1.426 92.471 31.896 130.885 37.265 38.414 5.428 139.44 1.135 223.37-237.877 0.001 0-240.453-132.312-22.743-330.072zM667.905 929.204h-0.015a82.77 82.77 0 0 1-11.902-0.858c-14.1-1.965-33.234-9.08-51.729-15.948-27.297-10.142-55.525-20.633-82.271-21.593l-3.012-0.044c-22.422 0-43.478 8.57-65.77 17.65-23.776 9.676-48.353 19.687-75.795 19.687-2.401 0-4.831-0.087-7.29-0.247-42.387-2.765-139.179-122.692-180.896-276.379-36.261-133.562 27.269-263.385 109.641-311.737 28.403-16.704 55.235-24.809 82.023-24.809 35.97 0 66.032 15.133 90.171 27.297 16.952 8.527 31.575 15.89 46.577 17.563 2.532 0.277 5.064 0.408 7.61 0.408 20.531 0 38.895-8.861 58.349-18.247 25.887-12.499 55.221-26.657 99.601-26.657 4.729 0 9.618 0.16 14.682 0.495 57.563 3.87 97.156 45.093 115.927 69.844-61.303 61.87-88.614 125.035-81.193 188.012 9.37 79.578 72.273 134.275 106.425 158.473-48.352 127.333-108.724 197.09-171.133 197.09z" p-id="4268"></path></svg>